<svg viewBox="0 0 24 24" xmlns="http://www.w3.org/2000/svg"><defs><linearGradient gradientUnits="userSpaceOnUse" id="a" x1="12" x2="12" y1="1.213" y2="22.796"><stop offset="0" stop-color="#00a2ff" class="stop-color-a6f9ff stop-color-401b34"></stop><stop offset="1" stop-color="#00a2ff" class="stop-color-3ed0f7 stop-color-401b34"></stop></linearGradient></defs><path d="m22.2 9.839-1.552-.309a8.9 8.9 0 0 0-.784-1.9l.874-1.31a1 1 0 0 0-.125-1.262l-1.669-1.671a1 1 0 0 0-1.262-.125l-1.31.874a8.9 8.9 0 0 0-1.9-.784L14.161 1.8a1 1 0 0 0-.981-.8h-2.36a1 1 0 0 0-.981.8L9.53 3.352a8.9 8.9 0 0 0-1.9.784l-1.31-.874a1 1 0 0 0-1.262.125L3.387 5.056a1 1 0 0 0-.125 1.262l.874 1.31a8.9 8.9 0 0 0-.784 1.9L1.8 9.839a1 1 0 0 0-.8.981v2.36a1 1 0 0 0 .8.981l1.548.309a8.9 8.9 0 0 0 .784 1.9l-.874 1.31a1 1 0 0 0 .125 1.262l1.669 1.669a1 1 0 0 0 1.262.125l1.31-.874a8.9 8.9 0 0 0 1.9.784l.315 1.554a1 1 0 0 0 .981.8h2.36a1 1 0 0 0 .981-.8l.309-1.548a8.9 8.9 0 0 0 1.9-.784l1.31.874a1 1 0 0 0 1.262-.125l1.669-1.669a1 1 0 0 0 .125-1.262l-.874-1.31a8.9 8.9 0 0 0 .784-1.9l1.548-.309a1 1 0 0 0 .8-.981V10.82a1 1 0 0 0-.794-.981Z" fill="url(#a)" class="fillurl(-a)"></path><path d="M7 13a1 1 0 0 1-1-1 6.006 6.006 0 0 1 6-6 1 1 0 0 1 0 2 4 4 0 0 0-4 4 1 1 0 0 1-1 1ZM12 18a1 1 0 0 1 0-2 4 4 0 0 0 4-4 1 1 0 0 1 2 0 6.006 6.006 0 0 1-6 6Z" fill="#ffffff" class="fill-2ac6ea fill-ffffff"></path></svg>